<?xml version="1.0" encoding="UTF-8"?>
<!DOCTYPE svg PUBLIC "-//W3C//DTD SVG 1.1//EN" "http://www.w3.org/Graphics/SVG/1.1/DTD/svg11.dtd">
<!-- Creator: CorelDRAW 2019 (64 Bit Versão de avaliação) -->
<svg xmlns="http://www.w3.org/2000/svg" xml:space="preserve" width="258.679mm" height="131.492mm" version="1.1" style="shape-rendering:geometricPrecision; text-rendering:geometricPrecision; image-rendering:optimizeQuality; fill-rule:evenodd; clip-rule:evenodd"
viewBox="0 0 25864.04 13147.27"
 xmlns:xlink="http://www.w3.org/1999/xlink">
 <defs>
  <style type="text/css">
   <![CDATA[
    .fil0 {fill:#E6E6E6}
    .fil1 {fill:#E6E6E6;fill-rule:nonzero}
   ]]>
  </style>
 </defs>
 <g id="Camada_x0020_1">
  <metadata id="CorelCorpID_0Corel-Layer"/>
  <g id="_1913529613680">
   <path class="fil0" d="M-0 8933.71l903.9 -1565.63 903.92 -1565.63 1807.81 0 1807.82 0 903.91 1565.63 903.89 1565.63 -903.89 1565.63 -903.91 1565.62 -1807.82 0 -1807.81 0 -903.92 -1565.62 -903.9 -1565.63zm492.64 0l1561.51 2704.6 3123.01 0 1561.49 -2704.6 -1561.49 -2704.59 -3123.01 0 -1561.51 2704.59z"/>
   <path class="fil0" d="M2442.06 2609.37l753.26 -1304.68 753.27 -1304.68 1506.49 0 1506.52 0 753.27 1304.68 753.27 1304.68 -753.27 1304.68 -753.27 1304.68 -1506.52 0 -1506.49 0 -753.27 -1304.68 -753.26 -1304.68zm492.65 0l1260.21 2182.73 2520.36 0 1260.19 -2182.73 -1260.19 -2182.73 -2520.36 0 -1260.21 2182.73z"/>
   <path class="fil0" d="M8170.52 4186.51l451.93 -782.81 451.94 -782.81 903.92 0 903.9 0 451.96 782.81 451.96 782.81 -451.96 782.82 -451.96 782.81 -903.9 0 -903.92 0 -451.94 -782.81 -451.93 -782.82zm492.62 0l657.59 1138.98 1315.19 0 657.56 -1138.98 -657.56 -1138.97 -1315.19 0 -657.59 1138.97z"/>
   <path class="fil1" d="M11120.18 11200.46l-696.15 0 0 -2006.82c0,-251.85 -51.38,-439.23 -152.12,-563.15 -101.75,-123.91 -262.94,-186.38 -483.58,-186.38 -291.15,0 -505.72,86.65 -641.72,260.93 -137.02,174.27 -205.52,466.44 -205.52,875.45l0 1619.97 -694.13 0 0 -4593.91 694.13 0 0 1166.62c0,186.38 -12.1,385.85 -35.27,598.41l44.33 0c94.71,-157.16 225.67,-279.06 393.92,-365.7 168.23,-86.64 364.68,-129.96 589.34,-129.96 790.84,0 1186.76,398.95 1186.76,1195.83l0 2128.71zm3268.12 0l-97.72 -427.16 -35.25 0c-96.73,152.14 -233.73,271 -412.05,357.65 -178.31,86.64 -381.82,129.96 -609.5,129.96 -395.92,0 -691.1,-98.73 -886.54,-295.19 -194.44,-196.45 -292.17,-494.65 -292.17,-894.6l0 -2134.76 699.17 0 0 2012.85c0,249.84 51.38,437.23 154.14,562.17 101.75,124.91 262.95,187.37 481.56,187.37 291.15,0 505.72,-86.64 641.73,-260.92 137.01,-174.29 205.51,-466.44 205.51,-875.47l0 -1626 697.16 0 0 3264.09 -546.04 0zm3200.63 -3324.54c408.03,0 725.35,148.09 952.04,443.27 227.68,295.18 340.51,709.23 340.51,1243.17 0,535.96 -114.84,953.05 -344.55,1251.24 -230.7,298.2 -550.05,447.3 -959.08,447.3 -413.05,0 -734.42,-149.11 -962.1,-446.3l-47.35 0 -126.93 385.85 -519.84 0 0 -4593.91 694.13 0 0 1092.06c0,80.61 -4.03,201.49 -12.1,360.68 -8.05,159.17 -14.1,260.92 -18.13,304.24l30.23 0c219.62,-325.4 545.02,-487.61 973.17,-487.61zm-179.31 568.19c-280.07,0 -480.56,82.61 -603.47,246.81 -122.89,164.22 -186.36,439.25 -190.39,824.09l0 47.35c0,397.93 62.46,685.06 188.39,863.38 125.93,178.31 331.44,266.97 616.55,266.97 245.81,0 432.19,-97.73 559.14,-292.17 126.93,-194.43 190.39,-476.51 190.39,-844.23 0,-741.46 -253.87,-1112.2 -760.61,-1112.2zm3703.34 2816.8c-507.76,0 -904.69,-148.1 -1190.79,-444.28 -286.12,-296.19 -429.18,-705.2 -429.18,-1225.04 0,-532.94 132.98,-953.05 397.93,-1258.29 265.97,-305.25 630.67,-457.38 1095.1,-457.38 430.17,0 770.68,130.96 1020.53,392.9 249.84,261.94 374.76,622.6 374.76,1081.99l0 374.77 -2174.04 0c9.07,316.32 94.71,560.14 255.89,730.38 162.2,170.25 388.86,254.89 682.03,254.89 192.42,0 371.75,-18.14 537.97,-54.41 166.24,-36.26 345.55,-96.71 535.96,-181.33l0 564.17c-169.25,80.59 -340.52,138.01 -513.79,171.26 -172.27,33.25 -370.74,50.37 -592.36,50.37zm-126.94 -2859.11c-220.64,0 -396.94,69.51 -529.91,209.55 -132.98,140.03 -211.57,344.55 -237.76,612.52l1480.94 0c-4.03,-269.99 -68.51,-474.51 -194.44,-613.52 -125.93,-139.04 -299.21,-208.55 -518.82,-208.55zm3609.64 2859.11c-507.75,0 -904.68,-148.1 -1190.78,-444.28 -286.12,-296.19 -429.18,-705.2 -429.18,-1225.04 0,-532.94 132.98,-953.05 397.93,-1258.29 265.97,-305.25 630.67,-457.38 1095.1,-457.38 430.17,0 770.68,130.96 1020.53,392.9 249.84,261.94 374.76,622.6 374.76,1081.99l0 374.77 -2174.04 0c9.07,316.32 94.71,560.14 255.89,730.38 162.2,170.25 388.86,254.89 682.03,254.89 192.42,0 371.75,-18.14 537.97,-54.41 166.24,-36.26 345.55,-96.71 535.96,-181.33l0 564.17c-169.25,80.59 -340.52,138.01 -513.79,171.26 -172.27,33.25 -370.74,50.37 -592.37,50.37zm-126.93 -2859.11c-220.64,0 -396.94,69.51 -529.91,209.55 -132.99,140.03 -211.57,344.55 -237.76,612.52l1480.93 0c-4.02,-269.99 -68.5,-474.51 -194.43,-613.52 -125.93,-139.04 -299.21,-208.55 -518.82,-208.55z"/>
   <path class="fil1" d="M23819.65 12231.63l-172.63 0 0 -150.1 510.35 0 0 150.1 -172.61 0 0 900.63 -165.11 0 0 -900.63zm417.28 -150.1l450.31 0 0 150.1 -285.21 0 0 277.7 226.66 0 0 150.11 -226.66 0 0 322.71 285.21 0 0 150.12 -450.31 0 0 -1050.73zm777.53 1065.74c-79.05,0 -139.35,-22.52 -180.86,-67.55 -41.53,-45.02 -62.3,-108.57 -62.3,-190.63l0 -564.39c0,-82.06 20.77,-145.61 62.3,-190.63 41.51,-45.03 101.81,-67.55 180.86,-67.55 79.06,0 139.36,22.52 180.88,67.55 41.52,45.02 62.29,108.57 62.29,190.63l0 111.07 -156.11 0 0 -121.58c0,-65.04 -27.53,-97.57 -82.57,-97.57 -55.02,0 -82.55,32.53 -82.55,97.57l0 586.89c0,64.06 27.53,96.08 82.55,96.08 55.04,0 82.57,-32.02 82.57,-96.08l0 -160.61 156.11 0 0 148.61c0,82.06 -20.77,145.61 -62.29,190.63 -41.52,45.03 -101.82,67.55 -180.88,67.55zm342.24 -1065.74l165.12 0 0 427.8 177.12 0 0 -427.8 165.12 0 0 1050.73 -165.12 0 0 -472.83 -177.12 0 0 472.83 -165.12 0 0 -1050.73z"/>
  </g>
 </g>
</svg>
